<svg width="700" height="291" viewBox="0 0 700 291" fill="none" xmlns="http://www.w3.org/2000/svg">
<g id="undraw_code_thinking_1jeh 1" clip-path="url(#clip0)">
<path id="Vector" d="M50.1511 252.398L34.1093 251.328L39.4566 275.391L57.6372 267.905L50.1511 252.398Z" fill="#FFB9B9"/>
<path id="Vector_2" d="M197.202 207.48L159.771 171.118L138.382 187.695L96.1378 238.494L100.951 245.98L152.285 211.223L187.042 256.675L220.196 240.099L197.202 207.48Z" fill="#2F2E41"/>
<path id="Vector_3" opacity="0.1" d="M197.202 207.48L159.771 171.118L138.382 187.695L96.1378 238.494L100.951 245.98L152.285 211.223L187.042 256.675L220.196 240.099L197.202 207.48Z" fill="black"/>
<path id="Vector_4" d="M235.168 271.113L223.404 278.599H209.501L144.799 254.536L50.1511 271.648L47.4772 251.328L134.104 213.362L210.036 238.494L235.168 271.113Z" fill="#2F2E41"/>
<path id="Arm-Top" d="M159.236 175.931L151.215 177.535L149.468 175.496C148.084 173.881 147.207 171.895 146.947 169.784C146.688 167.674 147.056 165.534 148.007 163.632V163.632L170.466 134.222C170.466 134.222 176.883 119.784 187.042 125.666C197.202 131.548 178.487 141.173 178.487 141.173L167.257 158.819L168.327 167.91L159.236 175.931Z" fill="#FFB9B9"/>
<path id="Vector_5" d="M263.996 203.582C263.995 216.168 262.012 228.675 258.119 240.644L256.558 245.446L249.071 279.669L241.05 281.808L235.168 274.322L223.404 265.766L214.848 251.863L207.512 239.639L205.223 235.821L197.202 195.716L166.723 178.604L156.563 177L158.702 171.118L167.792 158.819L176.883 157.75L179.556 155.611L181.695 156.68L190.251 151.868L192.924 152.937L208.56 154.392L218.057 152.403L231.714 145.071L237.307 145.986L256.558 162.028C261.479 175.329 263.997 189.399 263.996 203.582V203.582Z" fill="#575A89"/>
<path id="Foot" d="M39.0334 260.677C39.0334 260.677 43.8228 252.56 41.7999 251.612C39.7769 250.665 31.1858 246.887 31.1858 246.887L18.5869 242.712C18.5869 242.712 0.407629 215.693 0.00859033 239.189C-0.390449 262.684 13.2454 268.332 13.2454 268.332C13.2454 268.332 25.4068 294.505 32.2958 290.331C39.1847 286.158 46.0782 271.99 46.0782 271.99C46.0782 271.99 33.6553 265.312 39.0334 260.677Z" fill="#2F2E41"/>
<path id="Vector_6" opacity="0.1" d="M258.162 198.924L237.842 212.293L207.512 239.639L205.224 235.821L198.807 203.737H200.411L216.988 173.257L258.162 198.924Z" fill="black"/>
<g id="Arm-Bottom">
<path id="Vector_7" d="M200.411 231.543L195.598 235.286L156.563 221.918L147.472 218.175L129.291 221.918C129.291 221.918 129.291 206.945 146.403 207.48L164.049 211.758L184.904 213.362L200.411 231.543Z" fill="#FFB9B9"/>
<path id="Vector_8" d="M216.988 170.049L200.411 200.528H194.529L190.786 211.223L182.23 213.362L205.223 238.494L237.842 209.084L258.162 195.716L216.988 170.049Z" fill="#575A89"/>
</g>
<g id="Head">
<path id="Vector_9" d="M210.036 141.173C221.554 141.173 230.89 131.836 230.89 120.319C230.89 108.801 221.554 99.4641 210.036 99.4641C198.518 99.4641 189.181 108.801 189.181 120.319C189.181 131.836 198.518 141.173 210.036 141.173Z" fill="#FFB9B9"/>
<path id="Vector_10" d="M200.678 135.559L210.303 158.552L233.297 148.927C233.297 148.927 225.81 130.746 225.81 130.211C225.81 129.677 200.678 135.559 200.678 135.559Z" fill="#FFB9B9"/>
<path id="Vector_11" d="M193.815 104.812L191.556 105.682C191.208 105.446 190.911 105.144 190.682 104.793C190.453 104.441 190.296 104.047 190.221 103.634C190.146 103.221 190.154 102.798 190.245 102.388C190.335 101.978 190.507 101.59 190.749 101.248L186.574 101.052C189.254 97.4825 192.662 94.5224 196.572 92.3681C200.482 90.2138 204.805 88.9143 209.255 88.5556C213.705 88.197 218.18 88.7873 222.384 90.2876C226.589 91.7878 230.427 94.1638 233.645 97.2584C233.835 96.6036 235.907 97.8775 236.753 99.1692C237.037 98.1037 238.981 103.254 239.668 106.895C239.986 105.683 241.209 107.639 240.138 109.517C240.817 109.418 241.123 111.155 240.598 112.123C241.341 111.774 241.215 113.848 240.41 115.234C241.47 115.14 232.049 129.762 228.235 138.307C227.127 133.218 225.882 127.859 222.31 124.068C221.703 123.424 221.039 122.837 220.375 122.251L216.785 119.082C212.611 115.398 208.814 110.85 203.254 109.473C199.432 108.527 197.016 108.313 199.098 104.007C197.217 104.792 195.46 105.96 193.561 106.689C193.587 106.088 193.852 105.414 193.815 104.812Z" fill="#2F2E41"/>
<path id="Vector_12" d="M220.463 126.468C222.53 126.468 224.206 124.792 224.206 122.725C224.206 120.658 222.53 118.982 220.463 118.982C218.396 118.982 216.72 120.658 216.72 122.725C216.72 124.792 218.396 126.468 220.463 126.468Z" fill="#FFB9B9"/>
</g>
<path id="Vector_13" d="M663.308 3.46595H495.146V0H418.895V3.46595H250.041C248.547 3.46595 247.068 3.76017 245.688 4.3318C244.308 4.90344 243.054 5.74131 241.998 6.79756C240.941 7.85382 240.104 9.10777 239.532 10.4878C238.96 11.8679 238.666 13.347 238.666 14.8408V245.105C238.666 246.599 238.96 248.078 239.532 249.458C240.104 250.838 240.941 252.092 241.998 253.149C243.054 254.205 244.308 255.043 245.688 255.614C247.068 256.186 248.547 256.48 250.041 256.48H663.308C666.325 256.48 669.218 255.282 671.351 253.149C673.484 251.015 674.683 248.122 674.683 245.105V14.8408C674.683 13.347 674.388 11.8679 673.817 10.4878C673.245 9.10777 672.407 7.85382 671.351 6.79756C670.295 5.74131 669.041 4.90344 667.661 4.3318C666.281 3.76017 664.801 3.46595 663.308 3.46595V3.46595Z" fill="#3F3D56"/>
<path id="Vector_14" d="M659.432 23.5685H253.916V252.321H659.432V23.5685Z" fill="#6C63FF"/>
<path id="Vector_15" d="M456.328 17.3297C458.625 17.3297 460.487 15.4676 460.487 13.1706C460.487 10.8736 458.625 9.01147 456.328 9.01147C454.031 9.01147 452.169 10.8736 452.169 13.1706C452.169 15.4676 454.031 17.3297 456.328 17.3297Z" fill="#6C63FF"/>
<path id="Vector_16" opacity="0.1" d="M543.462 252.321H253.916V23.5686L543.462 252.321Z" fill="black"/>
<g id="Circles">
<path id="Vector_17" d="M317.367 235.203C338.895 235.203 356.347 217.752 356.347 196.224C356.347 174.696 338.895 157.245 317.367 157.245C295.84 157.245 278.388 174.696 278.388 196.224C278.388 217.752 295.84 235.203 317.367 235.203Z" fill="#F2F2F2"/>
<path id="Vector_18" d="M326.045 225.521C316.455 225.521 307.081 222.677 299.107 217.349C291.133 212.022 284.919 204.449 281.249 195.589C277.579 186.729 276.619 176.98 278.49 167.575C280.361 158.169 284.978 149.53 291.759 142.749C298.54 135.968 307.18 131.35 316.585 129.479C325.991 127.608 335.74 128.569 344.6 132.238C353.46 135.908 361.032 142.123 366.36 150.096C371.688 158.07 374.531 167.444 374.531 177.034C374.517 189.889 369.404 202.214 360.314 211.303C351.224 220.393 338.9 225.506 326.045 225.521ZM326.045 129.181C316.58 129.181 307.328 131.988 299.459 137.246C291.59 142.504 285.456 149.978 281.834 158.722C278.213 167.466 277.265 177.087 279.111 186.37C280.958 195.652 285.515 204.179 292.208 210.871C298.9 217.564 307.427 222.121 316.709 223.968C325.992 225.814 335.613 224.866 344.357 221.244C353.101 217.623 360.575 211.489 365.833 203.62C371.091 195.75 373.898 186.499 373.898 177.034C373.883 164.347 368.837 152.184 359.866 143.213C350.895 134.242 338.732 129.196 326.045 129.181V129.181Z" fill="#3F3D56"/>
</g>
<path id="Vector_19" d="M588.825 146.937H550.946V154.852H588.825V146.937Z" fill="#3F3D56"/>
<path id="Vector_20" d="M634.62 85.3115H505.151V88.7037H634.62V85.3115Z" fill="#3F3D56"/>
<path id="Vector_21" d="M634.62 96.0535H505.151V99.4457H634.62V96.0535Z" fill="#3F3D56"/>
<path id="Vector_22" d="M634.62 106.795H505.151V110.188H634.62V106.795Z" fill="#3F3D56"/>
<path id="Vector_23" d="M634.62 117.537H505.151V120.93H634.62V117.537Z" fill="#3F3D56"/>
<path id="Vector_24" d="M634.62 128.279H505.151V131.672H634.62V128.279Z" fill="#3F3D56"/>
<path id="Square-2" d="M634.62 28.2094H618.79V44.0397H634.62V28.2094Z" fill="#F2F2F2"/>
<path id="Square-1" d="M641.97 51.3895H622.747V32.1669H641.97V51.3895ZM623.583 50.5537H641.134V33.0027H623.583V50.5537Z" fill="#3F3D56"/>
<path id="Vector_25" d="M686.069 248.162H646.493V245.311C646.493 245.236 646.478 245.163 646.45 245.094C646.421 245.026 646.38 244.963 646.327 244.911C646.275 244.858 646.212 244.817 646.144 244.788C646.075 244.76 646.002 244.745 645.927 244.745H632.359C632.284 244.745 632.211 244.76 632.142 244.788C632.074 244.817 632.011 244.858 631.959 244.911C631.906 244.963 631.865 245.026 631.836 245.094C631.808 245.163 631.793 245.236 631.793 245.311V248.162H623.313V245.311C623.313 245.236 623.298 245.163 623.27 245.094C623.241 245.026 623.2 244.963 623.147 244.911C623.095 244.858 623.032 244.817 622.964 244.788C622.895 244.76 622.822 244.745 622.747 244.745H609.179C609.104 244.745 609.031 244.76 608.962 244.788C608.894 244.817 608.831 244.858 608.779 244.911C608.726 244.963 608.685 245.026 608.656 245.094C608.628 245.163 608.613 245.236 608.613 245.311V248.162H600.133V245.311C600.133 245.236 600.118 245.163 600.09 245.094C600.061 245.026 600.02 244.963 599.967 244.911C599.915 244.858 599.852 244.817 599.784 244.788C599.715 244.76 599.642 244.745 599.567 244.745H585.998C585.924 244.745 585.851 244.76 585.782 244.788C585.713 244.817 585.651 244.858 585.599 244.911C585.546 244.963 585.505 245.026 585.476 245.094C585.448 245.163 585.433 245.236 585.433 245.311V248.162H576.953V245.311C576.953 245.236 576.938 245.163 576.91 245.094C576.881 245.026 576.84 244.963 576.787 244.911C576.735 244.858 576.672 244.817 576.604 244.788C576.535 244.76 576.461 244.745 576.387 244.745H562.818C562.744 244.745 562.671 244.76 562.602 244.788C562.533 244.817 562.471 244.858 562.419 244.911C562.366 244.963 562.324 245.026 562.296 245.094C562.268 245.163 562.253 245.236 562.253 245.311V248.162H553.773V245.311C553.773 245.236 553.758 245.163 553.729 245.094C553.701 245.026 553.659 244.963 553.607 244.911C553.554 244.858 553.492 244.817 553.424 244.788C553.355 244.76 553.281 244.745 553.207 244.745H539.638C539.564 244.745 539.491 244.76 539.422 244.788C539.353 244.817 539.291 244.858 539.239 244.911C539.186 244.963 539.144 245.026 539.116 245.094C539.088 245.163 539.073 245.236 539.073 245.311V248.162H530.592V245.311C530.592 245.236 530.578 245.163 530.549 245.094C530.521 245.026 530.479 244.963 530.427 244.911C530.374 244.858 530.312 244.817 530.243 244.788C530.175 244.76 530.101 244.745 530.027 244.745H516.458C516.384 244.745 516.311 244.76 516.242 244.788C516.173 244.817 516.111 244.858 516.058 244.911C516.006 244.963 515.964 245.026 515.936 245.094C515.908 245.163 515.893 245.236 515.893 245.311V248.162H507.412V245.311C507.412 245.236 507.398 245.163 507.369 245.094C507.341 245.026 507.299 244.963 507.247 244.911C507.194 244.858 507.132 244.817 507.063 244.788C506.995 244.76 506.921 244.745 506.847 244.745H400.558C400.484 244.745 400.41 244.76 400.342 244.788C400.273 244.817 400.211 244.858 400.158 244.911C400.106 244.963 400.064 245.026 400.036 245.094C400.007 245.163 399.993 245.236 399.993 245.311V248.162H391.512V245.311C391.512 245.236 391.497 245.163 391.469 245.094C391.441 245.026 391.399 244.963 391.346 244.911C391.294 244.858 391.232 244.817 391.163 244.788C391.094 244.76 391.021 244.745 390.947 244.745H377.378C377.304 244.745 377.23 244.76 377.162 244.788C377.093 244.817 377.031 244.858 376.978 244.911C376.926 244.963 376.884 245.026 376.856 245.094C376.827 245.163 376.813 245.236 376.813 245.311V248.162H368.332V245.311C368.332 245.236 368.317 245.163 368.289 245.094C368.261 245.026 368.219 244.963 368.166 244.911C368.114 244.858 368.052 244.817 367.983 244.788C367.914 244.76 367.841 244.745 367.767 244.745H354.198C354.124 244.745 354.05 244.76 353.981 244.788C353.913 244.817 353.851 244.858 353.798 244.911C353.746 244.963 353.704 245.026 353.675 245.094C353.647 245.163 353.632 245.236 353.632 245.311V248.162H345.152V245.311C345.152 245.236 345.137 245.163 345.109 245.094C345.08 245.026 345.039 244.963 344.986 244.911C344.934 244.858 344.871 244.817 344.803 244.788C344.734 244.76 344.661 244.745 344.587 244.745H331.018C330.943 244.745 330.87 244.76 330.801 244.788C330.733 244.817 330.67 244.858 330.618 244.911C330.565 244.963 330.524 245.026 330.495 245.094C330.467 245.163 330.452 245.236 330.452 245.311V248.162H321.972V245.311C321.972 245.236 321.957 245.163 321.929 245.094C321.9 245.026 321.859 244.963 321.806 244.911C321.754 244.858 321.691 244.817 321.623 244.788C321.554 244.76 321.481 244.745 321.406 244.745H307.838C307.763 244.745 307.69 244.76 307.621 244.788C307.553 244.817 307.49 244.858 307.438 244.911C307.385 244.963 307.344 245.026 307.315 245.094C307.287 245.163 307.272 245.236 307.272 245.311V248.162H298.792V245.311C298.792 245.236 298.777 245.163 298.749 245.094C298.72 245.026 298.679 244.963 298.626 244.911C298.574 244.858 298.511 244.817 298.443 244.788C298.374 244.76 298.301 244.745 298.226 244.745H284.658C284.583 244.745 284.51 244.76 284.441 244.788C284.373 244.817 284.31 244.858 284.258 244.911C284.205 244.963 284.164 245.026 284.135 245.094C284.107 245.163 284.092 245.236 284.092 245.311V248.162H275.612V245.311C275.612 245.236 275.597 245.163 275.569 245.094C275.54 245.026 275.499 244.963 275.446 244.911C275.394 244.858 275.331 244.817 275.263 244.788C275.194 244.76 275.121 244.745 275.046 244.745H261.478C261.403 244.745 261.33 244.76 261.261 244.788C261.193 244.817 261.13 244.858 261.078 244.911C261.025 244.963 260.984 245.026 260.955 245.094C260.927 245.163 260.912 245.236 260.912 245.311V248.162H234.905C231.307 248.162 227.855 249.592 225.311 252.136C222.766 254.681 221.336 258.132 221.336 261.731V267.866C221.336 271.465 222.766 274.916 225.311 277.461C227.855 280.006 231.307 281.435 234.905 281.435H686.069C689.667 281.435 693.118 280.006 695.663 277.461C698.208 274.916 699.637 271.465 699.637 267.866V261.731C699.637 258.132 698.208 254.681 695.663 252.136C693.118 249.592 689.667 248.162 686.069 248.162V248.162Z" fill="#3F3D56"/>
</g>
<defs>
<clipPath id="clip0">
<rect width="700" height="290.859" fill="white"/>
</clipPath>
</defs>
</svg>
